<svg width="21" height="16" viewBox="0 0 21 16" fill="none" xmlns="http://www.w3.org/2000/svg">
<path fill-rule="evenodd" clip-rule="evenodd" d="M8.36133 2H18C18.5523 2 19 2.44772 19 3V13C19 13.5523 18.5523 14 18 14H8.36133C8.07297 14 7.79864 13.8755 7.60875 13.6585L3.23375 8.6585C2.90385 8.28148 2.90385 7.71852 3.23375 7.3415L7.60875 2.34149C7.79864 2.12448 8.07297 2 8.36133 2ZM6.1036 1.02448C6.67326 0.37344 7.49624 0 8.36133 0H18C19.6569 0 21 1.34315 21 3V13C21 14.6569 19.6569 16 18 16H8.36133C7.49624 16 6.67326 15.6266 6.1036 14.9755L1.7286 9.97551C0.738904 8.84443 0.738906 7.15556 1.7286 6.02449L6.1036 1.02448ZM14.6665 5.083C15.0117 4.73783 15.5713 4.73783 15.9165 5.08301C16.2617 5.42818 16.2617 5.98783 15.9165 6.333L14.0415 8.208L15.9165 10.083C16.2617 10.4282 16.2617 10.9878 15.9165 11.333C15.5713 11.6782 15.0117 11.6782 14.6665 11.333L12.7915 9.458L10.9165 11.333C10.5714 11.6782 10.0117 11.6782 9.66653 11.333C9.32135 10.9878 9.32135 10.4282 9.66653 10.083L11.5415 8.208L9.66653 6.33301C9.32135 5.98783 9.32135 5.42818 9.66653 5.08301C10.0117 4.73783 10.5714 4.73783 10.9165 5.08301L12.7915 6.95801L14.6665 5.083Z" fill="#FF762D"/>
</svg>
