<svg width="32" height="32" viewBox="0 0 32 32" fill="none" xmlns="http://www.w3.org/2000/svg">
<path fill-rule="evenodd" clip-rule="evenodd" d="M16 30C23.732 30 30 23.732 30 16C30 8.26801 23.732 2 16 2C8.26801 2 2 8.26801 2 16C2 23.732 8.26801 30 16 30ZM16 32C24.8366 32 32 24.8366 32 16C32 7.16344 24.8366 0 16 0C7.16344 0 0 7.16344 0 16C0 24.8366 7.16344 32 16 32Z" fill="white"/>
<path d="M15.8699 11.5468C14.7113 11.5808 13.6116 12.0649 12.8041 12.8962C11.9966 13.7276 11.545 14.8408 11.545 15.9996C11.5406 16.5874 11.6526 17.1702 11.8746 17.7145C12.0965 18.2588 12.424 18.7538 12.8382 19.1709C13.2524 19.5881 13.745 19.9192 14.2877 20.1452C14.8305 20.3711 15.4126 20.4874 16.0005 20.4874C16.5884 20.4874 17.1705 20.3711 17.7132 20.1452C18.2559 19.9192 18.7486 19.5881 19.1627 19.1709C19.5769 18.7538 19.9044 18.2588 20.1263 17.7145C20.3483 17.1702 20.4603 16.5874 20.4559 15.9996C20.456 15.4037 20.3363 14.8137 20.1042 14.2648C19.8721 13.7159 19.5321 13.2191 19.1045 12.8039C18.6769 12.3887 18.1702 12.0635 17.6146 11.8476C17.059 11.6316 16.4657 11.5294 15.8699 11.5468ZM15.9999 11.9721V20.0283C14.9319 20.0274 13.908 19.6027 13.1531 18.8473C12.3983 18.092 11.9742 17.068 11.9742 16.0002C11.9742 14.9325 12.3983 13.9084 13.1531 13.1531C13.908 12.3978 14.9319 11.973 15.9999 11.9721Z" fill="white"/>
<path d="M22.4878 9.21157L20.2635 11.4353C20.2239 11.4755 20.2018 11.5297 20.2021 11.5862C20.2023 11.6426 20.2249 11.6966 20.2649 11.7365C20.3048 11.7763 20.3589 11.7987 20.4154 11.7988C20.4718 11.7989 20.526 11.7767 20.5661 11.737L22.7893 9.51326C22.8274 9.4729 22.8482 9.41931 22.8474 9.36383C22.8466 9.30834 22.8242 9.25536 22.785 9.2161C22.7458 9.17685 22.6928 9.15444 22.6373 9.15359C22.5818 9.15274 22.5282 9.17354 22.4878 9.21157Z" fill="white"/>
<path d="M25.3888 15.7864H22.2431C22.1868 15.7869 22.1331 15.8096 22.0935 15.8496C22.054 15.8895 22.0318 15.9435 22.0318 15.9997C22.0318 16.056 22.054 16.1099 22.0935 16.1498C22.1331 16.1898 22.1868 16.2125 22.2431 16.213H25.3888C25.445 16.2125 25.4987 16.1898 25.5383 16.1498C25.5779 16.1099 25.6001 16.056 25.6001 15.9997C25.6001 15.9435 25.5779 15.8895 25.5383 15.8496C25.4987 15.8096 25.445 15.7869 25.3888 15.7864Z" fill="white"/>
<path d="M22.7895 22.4865L20.5663 20.2628C20.5262 20.2232 20.472 20.201 20.4156 20.2012C20.3593 20.2013 20.3052 20.2237 20.2653 20.2635C20.2253 20.3033 20.2028 20.3573 20.2025 20.4137C20.2022 20.4701 20.2242 20.5243 20.2637 20.5645L22.488 22.7882C22.5284 22.8261 22.582 22.8469 22.6374 22.846C22.6929 22.8451 22.7458 22.8226 22.785 22.7834C22.8241 22.7442 22.8465 22.6913 22.8474 22.6359C22.8482 22.5805 22.8274 22.5269 22.7895 22.4865Z" fill="white"/>
<path d="M16.2135 25.3866V22.2418C16.2135 22.1852 16.191 22.131 16.1509 22.091C16.1109 22.051 16.0567 22.0285 16.0001 22.0285C15.9435 22.0285 15.8892 22.051 15.8492 22.091C15.8092 22.131 15.7867 22.1852 15.7867 22.2418V25.3866C15.7867 25.4432 15.8092 25.4974 15.8492 25.5374C15.8892 25.5774 15.9435 25.5998 16.0001 25.5998C16.0567 25.5998 16.1109 25.5774 16.1509 25.5374C16.191 25.4974 16.2135 25.4432 16.2135 25.3866Z" fill="white"/>
<path d="M9.5121 22.7883L11.7366 20.5646C11.7746 20.5242 11.7954 20.4706 11.7946 20.4152C11.7938 20.3597 11.7714 20.3068 11.7322 20.2676C11.693 20.2283 11.6401 20.2059 11.5846 20.205C11.5291 20.2042 11.4755 20.2249 11.4351 20.2629L9.21061 22.4866C9.17265 22.527 9.15189 22.5806 9.15273 22.636C9.15358 22.6914 9.17596 22.7443 9.21514 22.7835C9.25432 22.8227 9.30722 22.8452 9.36265 22.8461C9.41808 22.8469 9.47167 22.8262 9.5121 22.7883Z" fill="white"/>
<path d="M6.61119 16.213H9.75691C9.81313 16.2125 9.86687 16.1898 9.90643 16.1498C9.946 16.1099 9.96819 16.056 9.96819 15.9997C9.96819 15.9435 9.946 15.8895 9.90643 15.8496C9.86687 15.8096 9.81313 15.7869 9.75691 15.7864H6.61119C6.55496 15.7869 6.50123 15.8096 6.46166 15.8496C6.4221 15.8895 6.3999 15.9435 6.3999 15.9997C6.3999 16.056 6.4221 16.1099 6.46166 16.1498C6.50123 16.1898 6.55496 16.2125 6.61119 16.213Z" fill="white"/>
<path d="M9.21052 9.51326L11.435 11.737C11.4754 11.7751 11.5291 11.7958 11.5846 11.795C11.64 11.7942 11.693 11.7717 11.7322 11.7325C11.7715 11.6932 11.7939 11.6402 11.7946 11.5848C11.7954 11.5293 11.7746 11.4757 11.7365 11.4353L9.512 9.21157C9.4716 9.17353 9.41796 9.15274 9.36246 9.15359C9.30697 9.15444 9.25399 9.17685 9.21477 9.2161C9.17554 9.25536 9.15316 9.30834 9.15237 9.36383C9.15157 9.41931 9.17243 9.4729 9.21052 9.51326Z" fill="white"/>
<path d="M15.7867 6.61322V9.7581C15.7867 9.81467 15.8092 9.8689 15.8492 9.90889C15.8892 9.94888 15.9435 9.97135 16.0001 9.97135C16.0567 9.97135 16.1109 9.94888 16.1509 9.90889C16.191 9.8689 16.2135 9.81467 16.2135 9.7581V6.61322C16.2135 6.55665 16.191 6.50242 16.1509 6.46243C16.1109 6.42243 16.0567 6.39996 16.0001 6.39996C15.9435 6.39996 15.8892 6.42243 15.8492 6.46243C15.8092 6.50242 15.7867 6.55665 15.7867 6.61322Z" fill="white"/>
</svg>
